<?xml version="1.0" encoding="utf-8"?>
<svg viewBox="0 0 612.002 612.002" fill="#000000" xmlns="http://www.w3.org/2000/svg">
  <defs/>
  <g>
    <g>
      <path d="M142.764,315.812l148.912,55.359c1.073,0.399,2.191,0.602,3.332,0.602c2.638,0,5.113-1.067,7.006-3.036&#10;&#9;&#9;&#9;c1.866-1.961,2.892-4.581,2.892-7.38v-44.946h109.797c5.074,0,9.308-3.996,9.852-9.392c0.431-4.789-2.254-9.242-6.528-10.831&#10;&#9;&#9;&#9;l-148.885-55.35c-3.579-1.343-7.718-0.353-10.3,2.362c-1.901,1.961-2.949,4.603-2.949,7.442v44.949H146.092&#10;&#9;&#9;&#9;c-5.091,0-9.321,4.007-9.858,9.486c-0.026,0.315-0.04,0.607-0.04,0.925C136.192,310.41,138.834,314.349,142.764,315.812z" style="fill: rgb(255, 67, 67);"/>
    </g>
  </g>
</svg>