<?xml version="1.0" encoding="utf-8"?>
<svg viewBox="0 0 496 496" xmlns="http://www.w3.org/2000/svg">
  <g transform="matrix(1, 0, 0, 1, 7.105427357601002e-15, -0.5801169872283936)">
    <path style="fill:#DAE8E8;" d="M88,161.6c-12.8,0-24,10.4-24,23.2v125.6c0,12.8,11.2,23.2,24,23.2s24-10.4,24-23.2V184.8&#10;&#9;&#9;C112,172,100.8,161.6,88,161.6z"/>
    <path style="fill:#DAE8E8;" d="M168,161.6c-12.8,0-24,10.4-24,23.2v125.6c0,12.8,11.2,23.2,24,23.2s24-10.4,24-23.2V184.8&#10;&#9;&#9;C192,172,180.8,161.6,168,161.6z"/>
    <path style="fill:#DAE8E8;" d="M240,161.6c-12.8,0-24,10.4-24,23.2v125.6c0,12.8,11.2,23.2,24,23.2c12.8,0,24-10.4,24-23.2V184.8&#10;&#9;&#9;C264,172,252.8,161.6,240,161.6z"/>
    <path style="fill:#DAE8E8;" d="M312,161.6c-12.8,0-24,10.4-24,23.2v125.6c0,12.8,11.2,23.2,24,23.2s24-10.4,24-23.2V184.8&#10;&#9;&#9;C336,172,324.8,161.6,312,161.6z"/>
    <path style="fill:#DAE8E8;" d="M464,174.4L464,174.4c12.8,0,24,10.4,24,24v100c0,12.8-11.2,24-24,24l0,0"/>
    <path style="fill:#DAE8E8;" d="M 385.778 162.29 C 372.978 162.29 361.778 172.69 361.778 185.49 L 361.778 311.09 C 361.778 323.89 372.978 334.29 385.778 334.29 C 398.578 334.29 409.778 323.89 409.778 311.09 L 409.778 185.49 C 409.778 172.69 398.578 162.29 385.778 162.29 Z"/>
  </g>
  <path style="fill:#6CE205;" d="M80,334.4c-12.8,0-24-10.4-24-23.2V184.8c0-12.8,11.2-23.2,24-23.2s24,10.4,24,23.2v125.6&#10;&#9;C104,324,92.8,334.4,80,334.4z" transform="matrix(1, 0, 0, 1, 7.105427357601002e-15, 0)"/>
  <path style="fill:#4AD102;" d="M56,184.8c0-12.8,11.2-23.2,24-23.2s24,10.4,24,23.2V312" transform="matrix(1, 0, 0, 1, 7.105427357601002e-15, 0)"/>
  <path style="fill:#6CE205;" d="M160,334.4c-12.8,0-24-10.4-24-23.2V184.8c0-12.8,11.2-23.2,24-23.2s24,10.4,24,23.2v125.6&#10;&#9;C184,324,172.8,334.4,160,334.4z" transform="matrix(1, 0, 0, 1, 7.105427357601002e-15, 0)"/>
  <path style="fill:#4AD102;" d="M136,184.8c0-12.8,11.2-23.2,24-23.2s24,10.4,24,23.2V312" transform="matrix(1, 0, 0, 1, 7.105427357601002e-15, 0)"/>
  <path style="fill:#6CE205;" d="M232,334.4c-12.8,0-24-10.4-24-23.2V184.8c0-12.8,11.2-23.2,24-23.2s24,10.4,24,23.2v125.6&#10;&#9;C256,324,244.8,334.4,232,334.4z" transform="matrix(1, 0, 0, 1, 7.105427357601002e-15, 0)"/>
  <path style="fill:#4AD102;" d="M208,184.8c0-12.8,11.2-23.2,24-23.2s24,10.4,24,23.2V312" transform="matrix(1, 0, 0, 1, 7.105427357601002e-15, 0)"/>
  <path style="fill:#6CE205;" d="M 305.16 333.239 C 292.36 333.239 281.16 322.839 281.16 310.039 L 281.16 183.639 C 281.16 170.839 292.36 160.439 305.16 160.439 C 317.96 160.439 329.16 170.839 329.16 183.639 L 329.16 309.239 C 329.16 322.839 317.96 333.239 305.16 333.239 Z" transform="matrix(1, 0, 0, 1, 7.105427357601002e-15, 0)"/>
  <path style="fill:#4AD102;" d="M 280.58 184.8 C 280.58 172 291.78 161.6 304.58 161.6 C 317.38 161.6 328.58 172 328.58 184.8 L 328.58 312" transform="matrix(1, 0, 0, 1, 7.105427357601002e-15, 0)"/>
  <path style="fill:#BECCCC;" d="M464.8,168H464v-16c0-19.2-14.4-32-32.8-32H32.8C15.2,120,0,133.6,0,152v192c0,19.2,15.2,32,32.8,32&#10;&#9;h398.4c17.6,0,32.8-13.6,32.8-32v-16h0.8c17.6,0,31.2-12.8,31.2-29.6V197.6C496,180.8,482.4,168,464.8,168z M448,344&#10;&#9;c0,10.4-7.2,16-16.8,16H32.8C24,360,16,353.6,16,344V152c0-10.4,8-16,16.8-16h398.4c9.6,0,16.8,6.4,16.8,16L448,344L448,344z&#10;&#9; M480,298.4c0,8.8-6.4,13.6-15.2,13.6H464V184h0.8c8.8,0,15.2,4.8,15.2,13.6V298.4z" transform="matrix(1, 0, 0, 1, 7.105427357601002e-15, 0)"/>
  <path style="fill:#D3E2E2;" d="M263.2,360H32.8C24,360,16,353.6,16,344V152c0-6.4,3.2-10.4,8-14.4L11.2,128C4,133.6,0,141.6,0,152&#10;&#9;v192c0,19.2,15.2,32,32.8,32H280L263.2,360z" transform="matrix(1, 0, 0, 1, 7.105427357601002e-15, 0)"/>
  <path style="fill:#6CE205;" d="M 379.396 333.82 C 366.596 333.82 355.396 323.42 355.396 310.62 L 355.396 184.22 C 355.396 171.42 366.596 161.02 379.396 161.02 C 392.196 161.02 403.396 171.42 403.396 184.22 L 403.396 309.82 C 403.396 323.42 392.196 333.82 379.396 333.82 Z" transform="matrix(1, 0, 0, 1, 7.105427357601002e-15, 0)"/>
  <path style="fill:#4AD102;" d="M 354.236 184.8 C 354.236 172 365.436 161.6 378.236 161.6 C 391.036 161.6 402.236 172 402.236 184.8 L 402.236 312" transform="matrix(1, 0, 0, 1, 7.105427357601002e-15, 0)"/>
</svg>