<svg width="28" height="24" viewBox="0 0 28 24" fill="none" xmlns="http://www.w3.org/2000/svg">
<path d="M8.66669 24V21.3333H3.33335C2.60002 21.3333 1.97224 21.0722 1.45002 20.55C0.927798 20.0278 0.666687 19.4 0.666687 18.6667V2.66667C0.666687 1.93333 0.927798 1.30556 1.45002 0.783333C1.97224 0.261111 2.60002 0 3.33335 0H24.6667C25.4 0 26.0278 0.261111 26.55 0.783333C27.0722 1.30556 27.3334 1.93333 27.3334 2.66667V18.6667C27.3334 19.4 27.0722 20.0278 26.55 20.55C26.0278 21.0722 25.4 21.3333 24.6667 21.3333H19.3334V24H8.66669ZM3.33335 18.6667H24.6667V2.66667H3.33335V18.6667Z" fill="white"/>
</svg>
