<svg width="512" height="512" viewBox="0 0 512 512" fill="none" xmlns="http://www.w3.org/2000/svg">
<path d="M40 268V40H196V268H40Z" fill="black"/>
<path d="M316 124V40H472V124H316Z" fill="black"/>
<path d="M316 472V244H472V472H316Z" fill="black"/>
<path d="M40 472V388H196V472H40Z" fill="black"/>
<path fill-rule="evenodd" clip-rule="evenodd" d="M276 16C276 7.16344 283.163 0 292 0H496C504.837 0 512 7.16345 512 16V148C512 156.837 504.837 164 496 164H292C283.163 164 276 156.837 276 148V16ZM316 40V124H472V40H316ZM276 220C276 211.163 283.163 204 292 204H496C504.837 204 512 211.163 512 220V496C512 504.837 504.837 512 496 512H292C283.163 512 276 504.837 276 496V220ZM316 244V472H472V244H316Z" fill="black"/>
<path fill-rule="evenodd" clip-rule="evenodd" d="M220 0H16C7.16344 0 0 7.16344 0 16V292C0 300.837 7.16344 308 16 308H220C228.837 308 236 300.837 236 292V16C236 7.16345 228.837 0 220 0ZM40 40V268H196V40H40Z" fill="black"/>
<path fill-rule="evenodd" clip-rule="evenodd" d="M220 348H16C7.16344 348 0 355.163 0 364V496C0 504.837 7.16344 512 16 512H220C228.837 512 236 504.837 236 496V364C236 355.163 228.837 348 220 348ZM40 388V472H196V388H40Z" fill="black"/>
</svg>
