<?xml version="1.0" encoding="utf-8"?>
<svg viewBox="0 0 496 496" xmlns="http://www.w3.org/2000/svg">
  <path style="fill:#BECCCC;" d="M464.8,168H464v-16c0-19.2-14.4-32-32.8-32H32.8C15.2,120,0,133.6,0,152v192c0,19.2,15.2,32,32.8,32&#10;&#9;h398.4c17.6,0,32.8-13.6,32.8-32v-16h0.8c17.6,0,31.2-12.8,31.2-29.6V197.6C496,180.8,482.4,168,464.8,168z M448,344&#10;&#9;c0,10.4-7.2,16-16.8,16H32.8C24,360,16,353.6,16,344V152c0-10.4,8-16,16.8-16h398.4c9.6,0,16.8,6.4,16.8,16L448,344L448,344z&#10;&#9; M480,298.4c0,8.8-6.4,13.6-15.2,13.6H464V184h0.8c8.8,0,15.2,4.8,15.2,13.6V298.4z" transform="matrix(1, 0, 0, 1, 1.4210854715202004e-14, 0)"/>
  <path style="fill:#D3E2E2;" d="M263.2,360H32.8C24,360,16,353.6,16,344V152c0-6.4,3.2-10.4,8-14.4L11.2,128C4,133.6,0,141.6,0,152&#10;&#9;v192c0,19.2,15.2,32,32.8,32H280L263.2,360z" transform="matrix(1, 0, 0, 1, 1.4210854715202004e-14, 0)"/>
</svg>