<?xml version="1.0" encoding="utf-8"?>
<svg viewBox="172.6628 168.8831 173.3802 56" xmlns="http://www.w3.org/2000/svg">
  <g transform="matrix(0, -1, 1, 0, 170.662811279297, -54.71696472168)" style="transform-origin: 88px 247.6px;">
    <path style="fill:#DAE8E8;" d="M88,161.6c-12.8,0-24,10.4-24,23.2v125.6c0,12.8,11.2,23.2,24,23.2s24-10.4,24-23.2V184.8&#10;&#9;&#9;C112,172,100.8,161.6,88,161.6z"/>
  </g>
  <path style="fill: rgb(108, 226, 5); transform-origin: 259.643px 200.883px;" d="M 259.643 287.283 C 246.843 287.283 235.643 276.883 235.643 264.083 L 235.643 137.683 C 235.643 124.883 246.843 114.483 259.643 114.483 C 272.443 114.483 283.643 124.883 283.643 137.683 L 283.643 263.283 C 283.643 276.883 272.443 287.283 259.643 287.283 Z" transform="matrix(0, -1, 1, 0, 0, -0.000030517578)"/>
  <path style="fill: rgb(74, 209, 2); transform-origin: 248.443px 200.883px;" d="M 224.443 148.883 C 224.443 136.083 235.643 125.683 248.443 125.683 C 261.243 125.683 272.443 136.083 272.443 148.883 L 272.443 276.083" transform="matrix(0, -1, 1, 0, -0.000003814697, 0)"/>
</svg>