<?xml version="1.0" encoding="utf-8"?>
<svg viewBox="0 0 496 496" xmlns="http://www.w3.org/2000/svg">
  <g transform="matrix(1, 0, 0, 1, 1.4210854715202004e-14, -0.5801169872283936)">
    <path style="fill:#DAE8E8;" d="M88,161.6c-12.8,0-24,10.4-24,23.2v125.6c0,12.8,11.2,23.2,24,23.2s24-10.4,24-23.2V184.8&#10;&#9;&#9;C112,172,100.8,161.6,88,161.6z"/>
  </g>
  <path style="fill:#6CE205;" d="M80,334.4c-12.8,0-24-10.4-24-23.2V184.8c0-12.8,11.2-23.2,24-23.2s24,10.4,24,23.2v125.6&#10;&#9;C104,324,92.8,334.4,80,334.4z" transform="matrix(1, 0, 0, 1, 1.4210854715202004e-14, 0)"/>
  <path style="fill:#4AD102;" d="M56,184.8c0-12.8,11.2-23.2,24-23.2s24,10.4,24,23.2V312" transform="matrix(1, 0, 0, 1, 1.4210854715202004e-14, 0)"/>
</svg>