<svg width="32" height="32" viewBox="0 0 32 32" fill="none" xmlns="http://www.w3.org/2000/svg">
<path d="M17 5H31M1 5H5M5 5C5 7.20914 6.79086 9 9 9C11.2091 9 13 7.20914 13 5C13 2.79086 11.2091 1 9 1C6.79086 1 5 2.79086 5 5ZM28 16H31M1 16H16M16 16C16 18.2091 17.7909 20 20 20C22.2091 20 24 18.2091 24 16C24 13.7909 22.2091 12 20 12C17.7909 12 16 13.7909 16 16ZM17 27H31M1 27H5M5 27C5 29.2091 6.79086 31 9 31C11.2091 31 13 29.2091 13 27C13 24.7909 11.2091 23 9 23C6.79086 23 5 24.7909 5 27Z" stroke="black" stroke-width="2" stroke-linecap="round" stroke-linejoin="round"/>
</svg>
